<svg xmlns="http://www.w3.org/2000/svg" height="20" viewBox="0 -960 960 960" width="20"><path d="M386.5-153v-65.5H273v-67h65.5v-389H273v-67h113.5V-807h67v65.5H524V-807h67v75.131q45 17.869 70.5 54.341Q687-641.057 687-594q0 29-8.75 52.5t-26.75 43q37.5 17 60.5 54.25t23 78.095q0 61.268-39.766 102.961Q655.469-221.5 593.5-218.5H591v65.5h-67v-65.5h-70.5v65.5h-67Zm19-360.5h134q34.031 0 57.266-23.604Q620-560.708 620-593.854t-23.647-56.896Q572.706-674.5 539.5-674.5h-134v161Zm0 228h182q34.031 0 57.266-23.604Q668-332.708 668-365.854t-23.647-56.896Q620.706-446.5 587.5-446.5h-182v161Z"/></svg>